%TF.GenerationSoftware,KiCad,Pcbnew,9.0.5*%
%TF.CreationDate,2025-11-10T20:03:10+00:00*%
%TF.ProjectId,spectrum_coil,73706563-7472-4756-9d5f-636f696c2e6b,rev?*%
%TF.SameCoordinates,Original*%
%TF.FileFunction,Profile,NP*%
%FSLAX46Y46*%
G04 Gerber Fmt 4.6, Leading zero omitted, Abs format (unit mm)*
G04 Created by KiCad (PCBNEW 9.0.5) date 2025-11-10 20:03:10*
%MOMM*%
%LPD*%
G01*
G04 APERTURE LIST*
%TA.AperFunction,Profile*%
%ADD10C,0.200000*%
%TD*%
G04 APERTURE END LIST*
D10*
X121500000Y-51000000D02*
X125000000Y-51000000D01*
X124750000Y-58500000D02*
X125000000Y-58500000D01*
X121500000Y-51250000D02*
X121500000Y-51000000D01*
X125000000Y-62000000D02*
X121500000Y-62000000D01*
X125000000Y-54500000D02*
X124750000Y-54500000D01*
X114000000Y-51000000D02*
X117500000Y-51000000D01*
X114000000Y-58500000D02*
X114250000Y-58500000D01*
X114250000Y-54500000D02*
X114000000Y-54500000D01*
X125000000Y-51000000D02*
X125000000Y-54500000D01*
X114000000Y-62000000D02*
X114000000Y-58500000D01*
X124750000Y-54500000D02*
X124750000Y-58500000D01*
X117500000Y-51250000D02*
X121500000Y-51250000D01*
X114000000Y-54500000D02*
X114000000Y-51000000D01*
X121500000Y-62000000D02*
X121500000Y-61750000D01*
X114250000Y-58500000D02*
X114250000Y-54500000D01*
X117500000Y-62000000D02*
X114000000Y-62000000D01*
X117500000Y-51000000D02*
X117500000Y-51250000D01*
X125000000Y-58500000D02*
X125000000Y-62000000D01*
X117500000Y-61750000D02*
X117500000Y-62000000D01*
X121500000Y-61750000D02*
X117500000Y-61750000D01*
M02*
